REM MD5 416f981dd10e7bd1c51e8112cfdbbcdf
FILE "Metamor Panic - Doki Doki Youma Busters!! (Japan).bin" BINARY
  TRACK 01 MODE2/2352
    INDEX 01 00:00:00
  TRACK 02 AUDIO
    INDEX 00 06:22:19
    INDEX 01 06:24:19
  TRACK 03 AUDIO
    INDEX 00 07:49:56
    INDEX 01 07:51:56
  TRACK 04 AUDIO
    INDEX 00 10:37:23
    INDEX 01 10:39:23
  TRACK 05 AUDIO
    INDEX 00 14:17:68
    INDEX 01 14:19:68
REM LEADOUT 16:49:68
